<svg version="1.1" id="_x2211_π_xBF_ÃæÓ_x5F_1" xmlns="http://www.w3.org/2000/svg" x="0" y="0" viewBox="0 0 100 50.41" xml:space="preserve"><path d="M100 50.41H0V0h100v50.41zM2.12 48.49h95.76V1.92H2.12v46.57z"/><path d="M19.47 9.12h-8v9.13h1.49c3.08 0 5.79-.21 8.33-.6l.29 1.83c-2.4.43-5.48.62-9.11.62H9.13V7.27h10.34v1.85zm3.87 16.21V5.48h2.35v19.85h-2.35zM39.1 10.82v.95c0 2.3-1.73 4.41-4.89 4.41-3.18 0-4.89-2.11-4.89-4.41v-.95c0-2.32 1.71-4.41 4.89-4.41 3.16 0 4.89 2.11 4.89 4.41zm-2.23.82v-.69c0-1.44-.85-2.71-2.66-2.71s-2.66 1.23-2.66 2.71v.69c0 1.44.86 2.73 2.66 2.73s2.66-1.29 2.66-2.73zm-.81 11.62h12.1v1.85H33.72v-6.56h2.35v4.71zm9.45-17.78h2.25v14.1h-2.25v-7.1H43.3v6.63h-2.23V5.74h2.23v4.93h2.21V5.48zm16.92 7.1v2.24c0 3.79-2.3 5.73-5.5 5.73s-5.5-1.94-5.5-5.73v-2.24c0-3.81 2.3-5.75 5.5-5.75 3.2.01 5.5 1.97 5.5 5.75zm-2.25 1.94v-1.64c0-3.03-1.54-4.11-3.25-4.11s-3.25 1.08-3.25 4.11v1.64c0 3.03 1.54 4.11 3.25 4.11s3.25-1.07 3.25-4.11zm11.08-.02h-3.37v10.83h-2.35V5.48h2.35v7.17h3.37v1.85zm21.17 6.37v1.81H72.36v-1.81h20.07zm-2.59-3.27H75.06V6.97h14.45v1.81h-12.1v2.63h11.93v1.77H77.41v2.63h12.43v1.79zm-77.7 18.92c2.18 0 3.34 1.1 3.34 3.09v1.03c0 1.99-1.1 3.09-3.34 3.09H9.5v-7.21h2.64zm-1.55 6.33h1.44c1.42 0 2.33-.64 2.33-2.26v-.93c0-1.62-.9-2.27-2.33-2.27h-1.44v5.46zm19.42-6.33l3.09 4.86c.15.24.37.62.56 1.05v-5.91h1.01v7.21h-1.26l-3.09-4.84c-.17-.27-.38-.63-.56-1.06v5.9h-1.01v-7.21h1.26zm24.44 7.21H53.3l-.84-2.12h-3.04l-.84 2.12h-1.11l2.95-7.21h1.06l2.97 7.21zm-4.7-2.97h2.38l-.66-1.69c-.24-.6-.31-.79-.53-1.45-.22.67-.29.85-.52 1.45l-.67 1.69zm18.58 2.97h-1.09v-7.21h2.88c1.62 0 2.54.83 2.54 1.97v.26c0 .81-.49 1.47-1.33 1.78l1.58 3.2h-1.18l-1.43-3.01h-1.95v3.01zm0-3.85h1.52c1.23 0 1.71-.45 1.71-1.16v-.2c0-.7-.5-1.15-1.6-1.15h-1.63v2.51zm19.38 3.85v-6.36h-2.43v-.85h5.94v.85H88.8v6.36h-1.09zM7.42 29.78h85.16v.54H7.42z"/></svg>